<svg id="svg" version="1.1" xmlns="http://www.w3.org/2000/svg" xmlns:xlink="http://www.w3.org/1999/xlink" width="400" height="400" viewBox="0, 0, 400,400"><g id="svgg"><path id="path0" d="M183.398 0.601 C 183.098 1.054,181.619 1.298,177.400 1.590 C 171.921 1.970,166.985 2.754,155.800 5.021 C 154.040 5.378,151.970 5.915,151.200 6.214 C 150.430 6.513,148.990 6.877,148.000 7.022 C 147.010 7.167,145.390 7.612,144.400 8.012 C 143.410 8.411,141.970 8.843,141.200 8.971 C 140.430 9.099,139.297 9.467,138.683 9.787 C 138.069 10.108,136.899 10.489,136.083 10.634 C 135.267 10.779,134.039 11.235,133.353 11.649 C 132.667 12.062,131.789 12.400,131.403 12.400 C 131.016 12.400,129.598 12.868,128.250 13.439 C 126.903 14.011,124.900 14.850,123.800 15.304 C 122.700 15.757,120.990 16.468,120.000 16.883 C 116.307 18.431,110.387 21.328,105.287 24.085 C 103.369 25.122,101.227 26.244,100.527 26.579 C 99.827 26.914,99.140 27.373,99.000 27.600 C 98.860 27.827,98.173 28.289,97.473 28.628 C 95.534 29.565,93.681 30.635,92.962 31.231 C 92.606 31.527,92.000 31.956,91.615 32.184 C 91.229 32.413,90.140 33.140,89.193 33.800 C 88.247 34.460,87.073 35.270,86.585 35.600 C 79.477 40.407,75.454 43.552,67.161 50.781 C 63.348 54.104,53.307 64.181,50.163 67.838 C 48.823 69.397,47.377 71.023,46.949 71.451 C 46.522 71.878,45.642 72.942,44.995 73.814 C 44.348 74.686,42.819 76.660,41.597 78.200 C 39.311 81.081,39.035 81.459,36.494 85.200 C 35.673 86.410,34.858 87.580,34.685 87.800 C 33.624 89.150,29.582 95.525,28.599 97.400 C 28.253 98.060,27.451 99.410,26.817 100.400 C 25.818 101.959,23.345 106.550,21.679 109.940 C 21.393 110.523,20.986 111.270,20.776 111.600 C 20.566 111.930,20.197 112.650,19.956 113.200 C 19.715 113.750,19.101 115.100,18.592 116.200 C 18.083 117.300,17.396 118.830,17.064 119.600 C 16.733 120.370,16.016 121.990,15.471 123.200 C 14.926 124.410,14.354 125.850,14.199 126.400 C 14.044 126.950,13.669 127.793,13.366 128.274 C 13.063 128.755,12.639 129.835,12.424 130.674 C 11.923 132.624,10.456 137.044,9.795 138.600 C 9.514 139.260,9.153 140.430,8.992 141.200 C 8.832 141.970,8.363 143.462,7.950 144.515 C 7.538 145.568,7.192 146.918,7.182 147.515 C 7.173 148.112,6.886 149.320,6.544 150.200 C 6.203 151.080,5.683 153.185,5.388 154.878 C 5.093 156.571,4.664 158.307,4.434 158.736 C 4.205 159.164,3.812 161.289,3.560 163.457 C 3.308 165.626,2.959 167.675,2.784 168.012 C 2.446 168.663,1.787 174.319,1.377 180.100 C 1.190 182.728,0.988 183.600,0.564 183.600 C 0.088 183.600,0.000 186.153,0.000 200.000 C 0.000 213.828,0.088 216.400,0.563 216.400 C 0.991 216.400,1.185 217.333,1.374 220.300 C 1.511 222.445,1.893 226.000,2.223 228.200 C 2.554 230.400,3.086 234.000,3.407 236.200 C 3.728 238.400,4.251 240.920,4.571 241.800 C 4.890 242.680,5.278 244.480,5.433 245.800 C 5.588 247.120,5.949 248.560,6.235 249.000 C 6.521 249.440,6.933 250.915,7.152 252.278 C 7.370 253.641,7.725 255.085,7.940 255.488 C 8.155 255.890,8.633 257.384,9.001 258.809 C 9.370 260.234,9.815 261.580,9.990 261.800 C 10.164 262.020,10.434 262.830,10.589 263.600 C 10.743 264.370,11.180 265.720,11.559 266.600 C 11.939 267.480,12.533 269.010,12.880 270.000 C 13.972 273.115,14.523 274.540,15.432 276.600 C 15.917 277.700,16.704 279.500,17.182 280.600 C 17.659 281.700,18.381 283.320,18.786 284.200 C 19.191 285.080,19.728 286.250,19.981 286.800 C 20.662 288.287,21.593 290.121,22.010 290.800 C 22.213 291.130,23.118 292.840,24.021 294.600 C 24.924 296.360,26.186 298.610,26.824 299.600 C 27.462 300.590,28.164 301.808,28.384 302.306 C 28.604 302.804,29.124 303.704,29.540 304.306 C 29.955 304.908,31.714 307.534,33.448 310.142 C 35.181 312.750,36.960 315.380,37.400 315.986 C 37.840 316.592,38.556 317.608,38.991 318.244 C 39.921 319.603,45.957 327.264,47.465 329.000 C 52.723 335.054,59.869 342.414,65.428 347.503 C 67.173 349.100,68.960 350.746,69.400 351.160 C 70.815 352.491,71.956 352.590,73.138 351.482 C 74.005 350.669,76.371 349.007,79.354 347.117 C 79.599 346.962,81.875 345.702,84.412 344.317 C 86.948 342.933,89.558 341.490,90.212 341.110 C 90.865 340.731,92.120 340.060,93.000 339.620 C 93.880 339.179,96.040 338.008,97.800 337.016 C 99.560 336.025,101.630 334.879,102.400 334.470 C 103.170 334.062,104.700 333.227,105.800 332.615 C 109.809 330.384,114.237 327.976,115.800 327.178 C 116.680 326.729,118.120 325.949,119.000 325.446 C 119.880 324.943,122.040 323.746,123.800 322.787 C 125.560 321.828,127.720 320.630,128.600 320.125 C 130.093 319.267,131.696 318.422,134.600 316.962 C 135.260 316.630,136.070 316.186,136.400 315.976 C 136.730 315.766,137.450 315.374,138.000 315.105 C 144.471 311.937,149.497 306.528,151.921 300.121 L 152.950 297.400 152.975 282.364 L 153.000 267.328 151.562 265.564 C 150.771 264.594,149.889 263.350,149.602 262.800 C 149.315 262.250,148.957 261.710,148.806 261.600 C 148.654 261.490,147.788 260.230,146.880 258.800 C 145.972 257.370,145.088 256.020,144.915 255.800 C 144.742 255.580,144.284 254.770,143.897 254.000 C 143.510 253.230,142.751 251.880,142.209 251.000 C 141.667 250.120,140.308 247.510,139.189 245.200 C 138.070 242.890,136.714 240.145,136.177 239.100 C 135.640 238.055,135.200 236.920,135.200 236.579 C 135.200 236.238,134.854 235.293,134.432 234.479 C 133.427 232.545,131.705 227.775,131.371 226.000 C 131.226 225.230,130.965 224.420,130.791 224.200 C 130.617 223.980,130.246 222.632,129.967 221.205 C 129.489 218.767,129.286 218.439,126.598 215.759 C 120.095 209.277,119.541 206.928,119.711 186.539 C 119.866 167.865,119.986 167.261,124.683 161.365 L 126.367 159.252 126.495 133.526 C 126.622 108.124,126.635 107.755,127.552 104.200 C 128.763 99.507,131.006 93.537,132.438 91.200 C 132.640 90.870,133.028 90.150,133.299 89.600 C 136.309 83.498,145.548 74.363,152.000 71.107 C 152.770 70.718,154.312 69.899,155.426 69.286 C 157.850 67.953,163.702 65.600,164.594 65.600 C 164.943 65.600,165.627 65.352,166.114 65.050 C 166.601 64.747,168.170 64.280,169.600 64.012 C 171.030 63.744,172.392 63.367,172.626 63.175 C 172.861 62.982,174.661 62.630,176.626 62.392 C 178.592 62.154,181.100 61.781,182.200 61.564 C 188.929 60.233,211.710 60.359,219.000 61.766 C 220.760 62.106,222.920 62.396,223.800 62.410 C 224.680 62.424,226.120 62.701,227.000 63.025 C 227.880 63.350,229.680 63.871,231.000 64.183 C 234.837 65.089,240.760 67.258,243.654 68.817 C 244.454 69.248,245.372 69.600,245.692 69.600 C 246.013 69.600,246.602 69.960,247.000 70.400 C 247.398 70.840,247.911 71.200,248.140 71.200 C 249.023 71.200,255.305 75.972,259.028 79.471 C 261.280 81.587,266.320 88.141,266.623 89.348 C 266.760 89.894,267.216 90.652,267.636 91.033 C 268.056 91.413,268.400 92.013,268.400 92.365 C 268.400 92.718,268.850 93.852,269.400 94.885 C 269.950 95.918,270.400 97.092,270.400 97.493 C 270.400 97.894,270.642 98.577,270.938 99.011 C 271.234 99.445,271.697 100.970,271.966 102.400 C 272.235 103.830,272.712 105.888,273.027 106.973 C 273.497 108.591,273.601 113.478,273.604 134.173 L 273.609 159.400 275.131 161.000 C 279.807 165.915,280.402 168.931,280.390 187.643 C 280.377 209.293,278.891 213.419,269.236 218.600 C 266.240 220.208,264.800 221.823,264.800 223.575 C 264.800 224.030,264.440 225.074,264.001 225.894 C 263.561 226.714,263.088 228.019,262.950 228.793 C 262.812 229.567,262.473 230.470,262.197 230.800 C 261.921 231.130,261.558 231.850,261.391 232.400 C 261.047 233.537,257.779 240.689,257.187 241.600 C 256.973 241.930,256.624 242.601,256.412 243.091 C 256.200 243.581,254.975 245.831,253.689 248.091 C 250.274 254.095,250.222 254.182,249.956 254.400 C 249.822 254.510,249.410 255.140,249.041 255.800 C 248.671 256.460,247.831 257.720,247.172 258.600 C 246.514 259.480,245.671 260.650,245.298 261.200 C 244.926 261.750,243.627 263.446,242.411 264.969 L 240.200 267.738 240.200 282.608 C 240.200 292.864,240.337 297.652,240.642 298.039 C 240.886 298.348,241.304 299.500,241.572 300.600 C 242.595 304.790,246.549 310.114,250.600 312.755 C 251.480 313.329,252.438 314.024,252.729 314.299 C 253.019 314.575,253.582 314.800,253.980 314.800 C 254.377 314.800,254.918 315.061,255.183 315.380 C 255.448 315.698,256.325 316.171,257.132 316.430 C 257.939 316.689,258.870 317.121,259.200 317.390 C 259.530 317.659,261.060 318.459,262.600 319.167 C 264.140 319.875,265.670 320.613,266.000 320.808 C 267.765 321.848,275.486 325.600,275.862 325.600 C 276.104 325.600,276.502 325.840,276.745 326.134 C 276.989 326.428,277.911 326.907,278.794 327.198 C 279.677 327.490,280.400 327.865,280.400 328.033 C 280.400 328.201,281.075 328.555,281.900 328.820 C 282.725 329.084,283.670 329.521,284.000 329.790 C 284.330 330.059,285.860 330.859,287.400 331.567 C 288.940 332.275,290.470 333.013,290.800 333.207 C 291.130 333.400,295.090 335.379,299.600 337.604 C 304.110 339.829,308.070 341.822,308.400 342.033 C 308.730 342.244,309.630 342.687,310.400 343.018 C 311.170 343.349,312.070 343.795,312.400 344.011 C 312.730 344.226,313.450 344.581,314.000 344.801 C 314.550 345.020,315.270 345.382,315.600 345.605 C 315.930 345.828,316.920 346.370,317.800 346.811 C 319.758 347.791,321.764 349.016,324.004 350.600 C 327.994 353.421,327.841 353.368,329.182 352.413 C 332.126 350.317,346.739 336.040,350.411 331.672 C 351.395 330.502,352.792 328.882,353.516 328.072 C 354.239 327.263,355.409 325.825,356.116 324.877 C 356.822 323.930,358.129 322.220,359.021 321.077 C 359.913 319.935,361.263 318.100,362.021 317.000 C 362.779 315.900,363.625 314.856,363.900 314.680 C 364.175 314.504,364.400 314.188,364.400 313.977 C 364.400 313.766,364.895 312.896,365.500 312.044 C 366.862 310.125,367.298 309.470,368.727 307.200 C 369.350 306.210,370.203 304.860,370.623 304.200 C 371.394 302.988,371.976 301.988,373.186 299.800 C 373.551 299.140,374.246 297.970,374.730 297.200 C 375.214 296.430,376.517 294.000,377.625 291.800 C 378.733 289.600,379.785 287.530,379.963 287.200 C 380.636 285.957,382.383 282.107,383.413 279.600 C 384.000 278.170,384.823 276.268,385.240 275.374 C 385.658 274.479,386.001 273.489,386.003 273.174 C 386.004 272.858,386.363 272.060,386.800 271.400 C 387.237 270.740,387.596 269.852,387.597 269.426 C 387.599 269.001,387.951 267.921,388.381 267.026 C 388.810 266.132,389.338 264.680,389.554 263.800 C 389.769 262.920,390.223 261.390,390.563 260.400 C 391.899 256.500,392.488 254.517,392.882 252.600 C 393.107 251.500,393.536 249.970,393.834 249.200 C 394.132 248.430,394.572 246.630,394.812 245.200 C 395.051 243.770,395.497 241.700,395.802 240.600 C 396.107 239.500,396.522 237.430,396.726 236.000 C 396.929 234.570,397.383 231.510,397.734 229.200 C 398.086 226.890,398.544 222.935,398.751 220.412 C 398.967 217.787,399.315 215.762,399.565 215.678 C 400.286 215.438,400.164 184.107,399.439 183.382 C 399.065 183.008,398.794 181.386,398.625 178.511 C 398.389 174.486,396.843 163.819,395.972 160.200 C 395.760 159.320,395.312 157.160,394.977 155.400 C 394.641 153.640,394.117 151.570,393.812 150.800 C 393.508 150.030,393.147 148.601,393.012 147.625 C 392.877 146.649,392.510 145.299,392.197 144.625 C 391.884 143.951,391.437 142.527,391.203 141.459 C 390.969 140.392,390.529 139.035,390.223 138.445 C 389.918 137.855,389.535 136.662,389.373 135.794 C 389.210 134.926,388.745 133.673,388.340 133.008 C 387.935 132.344,387.602 131.405,387.601 130.921 C 387.601 130.438,387.150 129.196,386.600 128.162 C 386.050 127.127,385.600 125.988,385.600 125.629 C 385.600 125.271,385.354 124.623,385.054 124.189 C 384.754 123.755,384.375 122.950,384.212 122.400 C 384.050 121.850,383.555 120.590,383.113 119.600 C 381.887 116.858,380.308 113.470,379.941 112.800 C 379.761 112.470,378.807 110.550,377.822 108.533 C 376.836 106.516,375.843 104.750,375.615 104.609 C 375.387 104.468,375.200 104.025,375.200 103.625 C 375.200 103.225,374.920 102.665,374.577 102.381 C 374.234 102.096,373.688 101.309,373.363 100.632 C 373.038 99.954,372.335 98.680,371.802 97.800 C 371.268 96.920,370.552 95.710,370.211 95.111 C 369.870 94.512,369.140 93.342,368.588 92.511 C 368.037 91.680,367.364 90.660,367.093 90.245 C 366.822 89.830,365.857 88.465,364.949 87.211 C 364.041 85.958,363.070 84.497,362.789 83.966 C 362.509 83.435,362.172 82.910,362.039 82.800 C 361.906 82.690,360.988 81.521,359.999 80.202 C 359.010 78.882,358.064 77.622,357.897 77.402 C 350.750 67.927,335.422 52.291,325.821 44.681 C 324.489 43.626,323.126 42.546,322.792 42.281 C 322.458 42.017,321.323 41.170,320.270 40.400 C 319.216 39.630,317.387 38.235,316.204 37.300 C 315.022 36.365,313.884 35.600,313.676 35.600 C 313.468 35.600,313.088 35.347,312.831 35.037 C 312.574 34.727,311.741 34.179,310.982 33.818 C 310.222 33.457,309.600 33.013,309.600 32.830 C 309.600 32.647,309.060 32.273,308.400 32.000 C 307.740 31.727,307.200 31.357,307.200 31.178 C 307.200 31.000,306.795 30.733,306.300 30.585 C 305.805 30.437,304.230 29.544,302.800 28.600 C 301.370 27.656,299.795 26.763,299.300 26.615 C 298.805 26.467,298.400 26.198,298.400 26.016 C 298.400 25.835,297.669 25.395,296.777 25.037 C 295.884 24.680,294.939 24.206,294.677 23.984 C 293.886 23.313,286.386 19.600,285.822 19.600 C 285.534 19.600,285.082 19.339,284.817 19.020 C 284.552 18.702,283.675 18.232,282.868 17.977 C 281.361 17.502,277.824 15.963,275.938 14.963 C 275.354 14.653,274.634 14.398,274.338 14.396 C 274.042 14.394,272.900 13.950,271.800 13.409 C 270.700 12.868,269.490 12.419,269.111 12.413 C 268.732 12.406,267.652 12.065,266.711 11.655 C 263.738 10.359,258.868 8.826,253.000 7.338 C 251.680 7.004,249.970 6.499,249.200 6.218 C 247.845 5.722,243.326 4.730,238.800 3.936 C 237.590 3.724,234.769 3.204,232.530 2.781 C 230.292 2.358,225.882 1.822,222.730 1.589 C 218.568 1.282,216.878 1.007,216.556 0.583 C 215.879 -0.306,183.987 -0.289,183.398 0.601 " stroke="none" fill="#546383" fill-rule="evenodd"></path><path id="path1" d="M0.000 91.800 C 0.000 170.536,0.080 183.600,0.564 183.600 C 0.988 183.600,1.190 182.728,1.377 180.100 C 1.787 174.319,2.446 168.663,2.784 168.012 C 2.959 167.675,3.308 165.626,3.560 163.457 C 3.812 161.289,4.205 159.164,4.434 158.736 C 4.664 158.307,5.093 156.571,5.388 154.878 C 5.683 153.185,6.203 151.080,6.544 150.200 C 6.886 149.320,7.173 148.112,7.182 147.515 C 7.192 146.918,7.538 145.568,7.950 144.515 C 8.363 143.462,8.832 141.970,8.992 141.200 C 9.153 140.430,9.514 139.260,9.795 138.600 C 10.456 137.044,11.923 132.624,12.424 130.674 C 12.639 129.835,13.063 128.755,13.366 128.274 C 13.669 127.793,14.044 126.950,14.199 126.400 C 14.354 125.850,14.926 124.410,15.471 123.200 C 16.016 121.990,16.733 120.370,17.064 119.600 C 17.396 118.830,18.083 117.300,18.592 116.200 C 19.101 115.100,19.725 113.750,19.978 113.200 C 20.676 111.686,21.598 109.871,22.010 109.200 C 22.213 108.870,23.118 107.160,24.021 105.400 C 24.924 103.640,26.183 101.390,26.817 100.400 C 27.451 99.410,28.253 98.060,28.599 97.400 C 29.582 95.525,33.624 89.150,34.685 87.800 C 34.858 87.580,35.673 86.410,36.494 85.200 C 39.035 81.459,39.311 81.081,41.597 78.200 C 42.819 76.660,44.348 74.686,44.995 73.814 C 45.642 72.942,46.522 71.878,46.949 71.451 C 47.377 71.023,48.823 69.397,50.163 67.838 C 53.307 64.181,63.348 54.104,67.161 50.781 C 72.080 46.493,73.246 45.521,77.602 42.084 C 80.552 39.757,82.235 38.542,86.585 35.600 C 87.073 35.270,88.247 34.460,89.193 33.800 C 90.140 33.140,91.229 32.413,91.615 32.184 C 92.000 31.956,92.606 31.527,92.962 31.231 C 93.681 30.635,95.534 29.565,97.473 28.628 C 98.173 28.289,98.860 27.827,99.000 27.600 C 99.140 27.373,99.827 26.914,100.527 26.579 C 101.227 26.244,103.369 25.122,105.287 24.085 C 110.387 21.328,116.307 18.431,120.000 16.883 C 120.990 16.468,122.700 15.757,123.800 15.304 C 124.900 14.850,126.903 14.011,128.250 13.439 C 129.598 12.868,131.016 12.400,131.403 12.400 C 131.789 12.400,132.667 12.062,133.353 11.649 C 134.039 11.235,135.267 10.779,136.083 10.634 C 136.899 10.489,138.069 10.108,138.683 9.787 C 139.297 9.467,140.430 9.099,141.200 8.971 C 141.970 8.843,143.410 8.411,144.400 8.012 C 145.390 7.612,147.010 7.167,148.000 7.022 C 148.990 6.877,150.430 6.513,151.200 6.214 C 152.490 5.713,155.634 5.004,161.200 3.960 C 162.410 3.733,165.290 3.194,167.600 2.763 C 169.910 2.331,174.295 1.802,177.343 1.586 C 182.934 1.190,183.600 1.062,183.600 0.376 C 183.600 0.142,148.895 0.000,91.800 0.000 L 0.000 0.000 0.000 91.800 M216.400 0.376 C 216.400 1.042,216.949 1.146,222.754 1.583 C 225.893 1.819,230.292 2.358,232.530 2.781 C 234.769 3.204,237.590 3.724,238.800 3.936 C 243.326 4.730,247.845 5.722,249.200 6.218 C 249.970 6.499,251.680 7.004,253.000 7.338 C 258.868 8.826,263.738 10.359,266.711 11.655 C 267.652 12.065,268.732 12.406,269.111 12.413 C 269.490 12.419,270.700 12.868,271.800 13.409 C 272.900 13.950,274.042 14.394,274.338 14.396 C 274.634 14.398,275.354 14.653,275.938 14.963 C 277.824 15.963,281.361 17.502,282.868 17.977 C 283.675 18.232,284.552 18.702,284.817 19.020 C 285.082 19.339,285.534 19.600,285.822 19.600 C 286.386 19.600,293.886 23.313,294.677 23.984 C 294.939 24.206,295.884 24.680,296.777 25.037 C 297.669 25.395,298.400 25.835,298.400 26.016 C 298.400 26.198,298.805 26.467,299.300 26.615 C 299.795 26.763,301.370 27.656,302.800 28.600 C 304.230 29.544,305.805 30.437,306.300 30.585 C 306.795 30.733,307.200 31.000,307.200 31.178 C 307.200 31.357,307.740 31.727,308.400 32.000 C 309.060 32.273,309.600 32.647,309.600 32.830 C 309.600 33.013,310.222 33.457,310.982 33.818 C 311.741 34.179,312.574 34.727,312.831 35.037 C 313.088 35.347,313.468 35.600,313.676 35.600 C 313.884 35.600,315.022 36.365,316.204 37.300 C 317.387 38.235,319.216 39.630,320.270 40.400 C 321.323 41.170,322.458 42.017,322.792 42.281 C 323.126 42.546,324.489 43.626,325.821 44.681 C 335.422 52.291,350.750 67.927,357.897 77.402 C 358.064 77.622,359.010 78.882,359.999 80.202 C 360.988 81.521,361.906 82.690,362.039 82.800 C 362.172 82.910,362.509 83.435,362.789 83.966 C 363.070 84.497,364.041 85.958,364.949 87.211 C 365.857 88.465,366.822 89.830,367.093 90.245 C 367.364 90.660,368.037 91.680,368.588 92.511 C 369.140 93.342,369.870 94.512,370.211 95.111 C 370.552 95.710,371.268 96.920,371.802 97.800 C 372.335 98.680,373.038 99.954,373.363 100.632 C 373.688 101.309,374.234 102.096,374.577 102.381 C 374.920 102.665,375.200 103.225,375.200 103.625 C 375.200 104.025,375.387 104.468,375.615 104.609 C 375.843 104.750,376.836 106.516,377.822 108.533 C 378.807 110.550,379.761 112.470,379.941 112.800 C 380.308 113.470,381.887 116.858,383.113 119.600 C 383.555 120.590,384.050 121.850,384.212 122.400 C 384.375 122.950,384.754 123.755,385.054 124.189 C 385.354 124.623,385.600 125.271,385.600 125.629 C 385.600 125.988,386.050 127.127,386.600 128.162 C 387.150 129.196,387.601 130.438,387.601 130.921 C 387.602 131.405,387.935 132.344,388.340 133.008 C 388.745 133.673,389.210 134.926,389.373 135.794 C 389.535 136.662,389.918 137.855,390.223 138.445 C 390.529 139.035,390.969 140.392,391.203 141.459 C 391.437 142.527,391.884 143.951,392.197 144.625 C 392.510 145.299,392.877 146.649,393.012 147.625 C 393.147 148.601,393.508 150.030,393.812 150.800 C 394.117 151.570,394.641 153.640,394.977 155.400 C 395.312 157.160,395.760 159.320,395.972 160.200 C 396.819 163.719,398.383 174.441,398.621 178.362 C 398.885 182.729,399.055 183.600,399.643 183.600 C 399.851 183.600,400.000 145.401,400.000 91.800 L 400.000 0.000 308.200 0.000 C 251.105 0.000,216.400 0.142,216.400 0.376 M190.000 60.808 C 187.030 60.952,182.980 61.358,181.000 61.712 C 179.020 62.065,176.368 62.467,175.106 62.605 C 173.845 62.743,172.722 63.003,172.611 63.182 C 172.501 63.361,171.193 63.729,169.705 63.999 C 168.217 64.270,166.601 64.740,166.114 65.045 C 165.627 65.350,164.943 65.600,164.594 65.600 C 163.702 65.600,157.850 67.953,155.426 69.286 C 154.312 69.899,152.770 70.718,152.000 71.107 C 145.548 74.363,136.309 83.498,133.299 89.600 C 133.028 90.150,132.640 90.870,132.438 91.200 C 131.006 93.537,128.763 99.507,127.552 104.200 C 126.635 107.755,126.622 108.124,126.495 133.526 L 126.367 159.252 124.683 161.365 C 119.986 167.261,119.866 167.865,119.711 186.539 C 119.541 206.928,120.095 209.277,126.598 215.759 C 129.286 218.439,129.489 218.767,129.967 221.205 C 130.246 222.632,130.617 223.980,130.791 224.200 C 130.965 224.420,131.226 225.230,131.371 226.000 C 131.705 227.775,133.427 232.545,134.432 234.479 C 134.854 235.293,135.200 236.238,135.200 236.579 C 135.200 236.920,135.640 238.055,136.177 239.100 C 136.714 240.145,138.070 242.890,139.189 245.200 C 140.308 247.510,141.667 250.120,142.209 251.000 C 142.751 251.880,143.510 253.230,143.897 254.000 C 144.284 254.770,144.742 255.580,144.915 255.800 C 145.088 256.020,145.972 257.370,146.880 258.800 C 147.788 260.230,148.654 261.490,148.806 261.600 C 148.957 261.710,149.315 262.250,149.602 262.800 C 149.889 263.350,150.771 264.594,151.562 265.564 L 153.000 267.328 152.975 282.364 L 152.950 297.400 151.921 300.121 C 149.820 305.673,146.000 310.257,140.749 313.526 C 139.067 314.573,138.433 314.921,135.800 316.240 C 135.140 316.571,134.330 317.014,134.000 317.226 C 133.670 317.437,132.680 317.969,131.800 318.408 C 130.920 318.847,129.480 319.619,128.600 320.125 C 127.720 320.630,125.560 321.828,123.800 322.787 C 122.040 323.746,119.880 324.943,119.000 325.446 C 118.120 325.949,116.680 326.729,115.800 327.178 C 114.237 327.976,109.809 330.384,105.800 332.615 C 104.700 333.227,103.170 334.062,102.400 334.470 C 101.630 334.879,99.560 336.025,97.800 337.016 C 96.040 338.008,93.880 339.179,93.000 339.620 C 92.120 340.060,90.865 340.731,90.212 341.110 C 89.558 341.490,86.948 342.933,84.412 344.317 C 81.875 345.702,79.599 346.962,79.354 347.117 C 76.371 349.007,74.005 350.669,73.138 351.482 C 71.956 352.590,70.815 352.491,69.400 351.160 C 68.960 350.746,67.173 349.100,65.428 347.503 C 55.904 338.784,44.132 325.755,38.991 318.244 C 38.556 317.608,37.840 316.592,37.400 315.986 C 36.960 315.380,35.181 312.750,33.448 310.142 C 31.714 307.534,29.955 304.908,29.540 304.306 C 29.124 303.704,28.604 302.804,28.384 302.306 C 28.164 301.808,27.462 300.590,26.824 299.600 C 25.820 298.043,23.367 293.494,21.679 290.060 C 21.393 289.477,20.986 288.730,20.776 288.400 C 20.566 288.070,20.198 287.350,19.958 286.800 C 19.718 286.250,19.191 285.080,18.786 284.200 C 18.381 283.320,17.659 281.700,17.182 280.600 C 16.704 279.500,15.917 277.700,15.432 276.600 C 14.523 274.540,13.972 273.115,12.880 270.000 C 12.533 269.010,11.939 267.480,11.559 266.600 C 11.180 265.720,10.743 264.370,10.589 263.600 C 10.434 262.830,10.164 262.020,9.990 261.800 C 9.815 261.580,9.370 260.234,9.001 258.809 C 8.633 257.384,8.155 255.890,7.940 255.488 C 7.725 255.085,7.370 253.641,7.152 252.278 C 6.933 250.915,6.521 249.440,6.235 249.000 C 5.949 248.560,5.588 247.120,5.433 245.800 C 5.278 244.480,4.890 242.680,4.571 241.800 C 4.251 240.920,3.728 238.400,3.407 236.200 C 3.086 234.000,2.554 230.400,2.223 228.200 C 1.893 226.000,1.511 222.445,1.374 220.300 C 1.185 217.333,0.991 216.400,0.563 216.400 C 0.081 216.400,0.000 229.574,0.000 308.200 L 0.000 400.000 200.000 400.000 L 400.000 400.000 400.000 307.800 C 400.000 252.523,399.854 215.600,399.635 215.600 C 399.150 215.600,398.847 217.581,398.413 223.600 C 398.214 226.350,397.680 230.458,397.226 232.729 C 396.772 235.001,396.400 237.363,396.400 237.979 C 396.400 238.595,396.155 239.797,395.856 240.650 C 395.557 241.502,395.103 243.460,394.847 245.000 C 394.592 246.540,394.138 248.430,393.838 249.200 C 393.538 249.970,393.107 251.500,392.882 252.600 C 392.488 254.517,391.899 256.500,390.563 260.400 C 390.223 261.390,389.769 262.920,389.554 263.800 C 389.338 264.680,388.810 266.132,388.381 267.026 C 387.951 267.921,387.599 269.001,387.597 269.426 C 387.596 269.852,387.237 270.740,386.800 271.400 C 386.363 272.060,386.004 272.858,386.003 273.174 C 386.001 273.489,385.658 274.479,385.240 275.374 C 384.823 276.268,384.000 278.170,383.413 279.600 C 382.383 282.107,380.636 285.957,379.963 287.200 C 379.785 287.530,378.733 289.600,377.625 291.800 C 376.517 294.000,375.214 296.430,374.730 297.200 C 374.246 297.970,373.551 299.140,373.186 299.800 C 371.976 301.988,371.394 302.988,370.623 304.200 C 370.203 304.860,369.350 306.210,368.727 307.200 C 367.298 309.470,366.862 310.125,365.500 312.044 C 364.895 312.896,364.400 313.766,364.400 313.977 C 364.400 314.188,364.175 314.504,363.900 314.680 C 363.625 314.856,362.779 315.900,362.021 317.000 C 361.263 318.100,359.913 319.935,359.021 321.077 C 358.129 322.220,356.822 323.930,356.116 324.877 C 355.409 325.825,354.239 327.263,353.516 328.072 C 352.792 328.882,351.395 330.502,350.411 331.672 C 346.739 336.040,332.126 350.317,329.182 352.413 C 327.841 353.368,327.994 353.421,324.004 350.600 C 321.764 349.016,319.758 347.791,317.800 346.811 C 316.920 346.370,315.930 345.828,315.600 345.605 C 315.270 345.382,314.550 345.020,314.000 344.801 C 313.450 344.581,312.730 344.226,312.400 344.011 C 312.070 343.795,311.170 343.349,310.400 343.018 C 309.630 342.687,308.730 342.244,308.400 342.033 C 308.070 341.822,304.110 339.829,299.600 337.604 C 295.090 335.379,291.130 333.400,290.800 333.207 C 290.470 333.013,288.940 332.275,287.400 331.567 C 285.860 330.859,284.330 330.059,284.000 329.790 C 283.670 329.521,282.725 329.084,281.900 328.820 C 281.075 328.555,280.400 328.201,280.400 328.033 C 280.400 327.865,279.677 327.490,278.794 327.198 C 277.911 326.907,276.989 326.428,276.745 326.134 C 276.502 325.840,276.104 325.600,275.862 325.600 C 275.486 325.600,267.765 321.848,266.000 320.808 C 265.670 320.613,264.140 319.875,262.600 319.167 C 261.060 318.459,259.530 317.659,259.200 317.390 C 258.870 317.121,257.939 316.689,257.132 316.430 C 256.325 316.171,255.448 315.698,255.183 315.380 C 254.918 315.061,254.377 314.800,253.980 314.800 C 253.582 314.800,253.019 314.575,252.729 314.299 C 252.438 314.024,251.480 313.329,250.600 312.755 C 246.549 310.114,242.595 304.790,241.572 300.600 C 241.304 299.500,240.886 298.348,240.642 298.039 C 240.337 297.652,240.200 292.864,240.200 282.608 L 240.200 267.738 242.411 264.969 C 243.627 263.446,244.926 261.750,245.298 261.200 C 245.671 260.650,246.514 259.480,247.172 258.600 C 247.831 257.720,248.671 256.460,249.041 255.800 C 249.410 255.140,249.822 254.510,249.956 254.400 C 250.222 254.182,250.274 254.095,253.689 248.091 C 254.975 245.831,256.200 243.581,256.412 243.091 C 256.624 242.601,256.973 241.930,257.187 241.600 C 257.779 240.689,261.047 233.537,261.391 232.400 C 261.558 231.850,261.921 231.130,262.197 230.800 C 262.473 230.470,262.812 229.567,262.950 228.793 C 263.088 228.019,263.561 226.714,264.001 225.894 C 264.440 225.074,264.800 224.030,264.800 223.575 C 264.800 221.823,266.240 220.208,269.236 218.600 C 278.891 213.419,280.377 209.293,280.390 187.643 C 280.402 168.931,279.807 165.915,275.131 161.000 L 273.609 159.400 273.604 134.173 C 273.601 113.478,273.497 108.591,273.027 106.973 C 272.712 105.888,272.235 103.830,271.966 102.400 C 271.697 100.970,271.234 99.445,270.938 99.011 C 270.642 98.577,270.400 97.894,270.400 97.493 C 270.400 97.092,269.950 95.918,269.400 94.885 C 268.850 93.852,268.400 92.718,268.400 92.365 C 268.400 92.013,268.056 91.413,267.636 91.033 C 267.216 90.652,266.760 89.894,266.623 89.348 C 266.320 88.141,261.280 81.587,259.028 79.471 C 255.305 75.972,249.023 71.200,248.140 71.200 C 247.911 71.200,247.398 70.840,247.000 70.400 C 246.602 69.960,246.013 69.600,245.692 69.600 C 245.372 69.600,244.454 69.248,243.654 68.817 C 240.760 67.258,234.837 65.089,231.000 64.183 C 229.680 63.871,227.880 63.350,227.000 63.025 C 226.120 62.701,224.680 62.424,223.800 62.410 C 222.920 62.396,220.760 62.105,219.000 61.763 C 213.270 60.650,201.371 60.258,190.000 60.808 " stroke="none" fill="#edf2f2" fill-rule="evenodd"></path></g></svg>